# xmcd CD database file
#
# Track frame offsets:
#	150
#	20999
#	42656
#	59188
#
# Disc length: 1034 seconds
#
# Revision: 0
# Processed by: cddbd v1.4PL0 Copyright (c) Steve Scherf et al.
# Submitted via: CDex 1.50
#
DISCID=3f040804
DTITLE=Jeremy Camp - I Still Believe
DYEAR=2003
DGENRE=Worship
TTITLE0=I Still Believe
TTITLE1=I Still Believe (Acoustic)
TTITLE2=Empty Me
TTITLE3=You Are
EXTD=YEAR: 2003
EXTT0=
EXTT1=
EXTT2=
EXTT3=
PLAYORDER=
